<svg xmlns="http://www.w3.org/2000/svg" version="1.1" xmlns:xlink="http://www.w3.org/1999/xlink" xmlns:svgjs="http://svgjs.dev/svgjs" width="1500" height="1687" viewBox="0 0 1500 1687"><g transform="matrix(1,0,0,1,0.0003468435663762648,0)"><svg viewBox="0 0 320 360" data-background-color="#ffffff" preserveAspectRatio="xMidYMid meet" height="1687" width="1500" xmlns="http://www.w3.org/2000/svg" xmlns:xlink="http://www.w3.org/1999/xlink"><g id="tight-bounds" transform="matrix(1,0,0,1,-0.00007399329416557521,0)"><svg viewBox="0 0 320 360" height="360" width="320"><g><svg></svg></g><g><svg viewBox="0 0 320 360" height="360" width="320"><g><path transform="translate(-17.30355,3.60951) scale(3.54253,3.54253)" d="M50 95v0c-2.2 0-4.1-1.4-4.7-3.5-0.3-1.1-1.5-1.7-2.5-1.4-0.4 0.1-0.8 0.4-1.1 0.8-1.6 2.2-4.6 2.8-6.9 1.2-1.4-0.9-2.2-2.5-2.1-4.2 0-1.1-0.9-2.1-2-2.1-0.5 0-0.9 0.1-1.3 0.4-2.2 1.6-5.3 1.2-6.9-1-1-1.3-1.3-3-0.7-4.6 0.4-1.1-0.2-2.2-1.3-2.6-0.4-0.1-0.9-0.1-1.3 0-2.6 0.9-5.4-0.5-6.3-3.1-0.5-1.5-0.3-3.3 0.7-4.6 0.7-0.9 0.5-2.2-0.4-2.8-0.4-0.3-0.8-0.4-1.3-0.4-2.7 0.1-5-2.1-5-4.8 0-1.7 0.8-3.2 2.1-4.2 0.9-0.6 1.1-1.9 0.5-2.8-0.3-0.4-0.6-0.6-1.1-0.8-2.6-0.8-4.1-3.6-3.3-6.2 0.5-1.6 1.7-2.8 3.3-3.3 1.1-0.3 1.7-1.5 1.4-2.5-0.1-0.4-0.4-0.8-0.8-1.1-2.2-1.6-2.8-4.6-1.2-6.9 0.9-1.4 2.5-2.2 4.2-2.1 1.1 0 2.1-0.9 2.1-2 0-0.5-0.1-0.9-0.4-1.3-1.6-2.2-1.2-5.3 1-6.9 1.3-1 3-1.3 4.6-0.7 1.1 0.4 2.2-0.2 2.6-1.3 0.1-0.4 0.1-0.9 0-1.3-0.9-2.6 0.5-5.4 3.1-6.3 1.5-0.5 3.3-0.3 4.6 0.7 0.9 0.7 2.2 0.5 2.8-0.4 0.3-0.4 0.4-0.8 0.4-1.3-0.1-2.7 2.1-5 4.8-5 1.7 0 3.2 0.8 4.2 2.1 0.6 0.9 1.9 1.1 2.8 0.5 0.4-0.3 0.6-0.6 0.8-1.1 0.8-2.6 3.6-4.1 6.2-3.3 1.6 0.5 2.8 1.7 3.3 3.3v0c0.2 0.7 0.8 1.3 1.6 1.4 0.8 0.1 1.5-0.2 2-0.8 1.6-2.2 4.6-2.8 6.9-1.2 1.4 0.9 2.2 2.5 2.1 4.2 0 1.1 0.9 2.1 2 2.1 0.5 0 0.9-0.1 1.3-0.4 2.2-1.6 5.3-1.2 6.9 1 1 1.3 1.3 3 0.7 4.6-0.4 1.1 0.2 2.2 1.3 2.6 0.4 0.1 0.9 0.1 1.3 0 2.6-0.9 5.4 0.5 6.3 3.1 0.5 1.5 0.3 3.3-0.7 4.6-0.7 0.9-0.5 2.2 0.4 2.8 0.4 0.3 0.8 0.4 1.3 0.4 2.7-0.1 5 2.1 5 4.8 0 1.7-0.8 3.2-2.1 4.2-0.7 0.4-1 1.2-0.9 2 0.1 0.8 0.7 1.4 1.4 1.6 2.6 0.8 4.1 3.6 3.3 6.2-0.5 1.6-1.7 2.8-3.3 3.3-1.1 0.3-1.7 1.5-1.4 2.5 0.1 0.4 0.4 0.8 0.8 1.1 2.2 1.6 2.8 4.6 1.2 6.9-0.9 1.4-2.5 2.2-4.2 2.1-0.8 0-1.5 0.4-1.9 1.1-0.4 0.7-0.3 1.5 0.2 2.2 1.6 2.2 1.2 5.3-1 6.9-1.3 1-3 1.3-4.6 0.7-1.1-0.4-2.2 0.2-2.6 1.3-0.1 0.4-0.1 0.9 0 1.3 0.9 2.6-0.5 5.4-3.1 6.3-1.5 0.5-3.3 0.3-4.6-0.7-0.9-0.7-2.2-0.5-2.8 0.4-0.3 0.4-0.4 0.8-0.4 1.3 0.1 2.7-2.1 5-4.8 5-1.7 0-3.2-0.8-4.2-2.1-0.4-0.6-1.2-1-2-0.8-0.8 0.1-1.4 0.7-1.6 1.4-0.6 2.1-2.5 3.5-4.7 3.5zM43.3 87.2c0.3 0 0.5 0 0.8 0.1 1.9 0.3 3.4 1.6 3.9 3.4 0.3 1.1 1.5 1.7 2.5 1.3 0.6-0.2 1.1-0.7 1.3-1.3 0.8-2.6 3.6-4.1 6.2-3.3 1 0.3 2 1 2.6 1.9 0.7 0.9 1.9 1.1 2.9 0.4 0.5-0.4 0.8-1 0.8-1.6-0.1-2.7 2.1-5 4.8-5 1.1 0 2.2 0.3 3.1 1 0.9 0.7 2.2 0.5 2.8-0.4 0.4-0.5 0.5-1.3 0.3-1.9-0.9-2.6 0.4-5.4 3-6.3 1.1-0.4 2.2-0.4 3.3 0 1.1 0.4 2.2-0.2 2.6-1.3 0.2-0.6 0.1-1.4-0.3-1.9-1.6-2.2-1.2-5.3 1-6.9 0.9-0.7 2-1 3.1-1 1.1 0 2-0.9 2.1-2 0-0.7-0.3-1.3-0.9-1.7-2.2-1.6-2.8-4.6-1.2-6.9 0.6-0.9 1.5-1.6 2.6-1.9 1.1-0.3 1.7-1.5 1.3-2.5-0.2-0.6-0.7-1.1-1.3-1.3-2.6-0.8-4.1-3.6-3.3-6.2 0.3-1 1-2 1.9-2.6 0.9-0.7 1.1-2 0.4-2.9-0.4-0.5-1-0.8-1.6-0.8-2.7 0.1-5-2.1-5-4.8 0-1.1 0.3-2.2 1-3.1 0.7-0.9 0.5-2.2-0.4-2.8-0.5-0.4-1.3-0.5-1.9-0.3-2.6 0.9-5.4-0.4-6.3-3-0.4-1.1-0.4-2.2 0-3.3 0.4-1.1-0.2-2.2-1.3-2.6-0.6-0.2-1.4-0.1-1.9 0.3-2.2 1.6-5.3 1.2-6.9-1-0.7-0.9-1-2-1-3.1 0-1.1-0.9-2-2.1-2-0.6 0-1.3 0.3-1.6 0.8-1.6 2.2-4.6 2.8-6.9 1.2-0.9-0.6-1.6-1.5-1.9-2.6v0c-0.3-1.1-1.5-1.7-2.5-1.3-0.6 0.2-1.1 0.7-1.3 1.3-0.8 2.6-3.6 4.1-6.2 3.3-1-0.3-2-1-2.6-1.9-0.7-0.9-1.9-1.1-2.9-0.4-0.5 0.4-0.8 1-0.8 1.6 0.1 2.7-2.1 5-4.8 5-1.1 0-2.2-0.3-3.1-1-0.9-0.7-2.2-0.5-2.8 0.4-0.4 0.5-0.5 1.3-0.3 1.9 0.9 2.6-0.4 5.4-3 6.3-1.1 0.4-2.2 0.4-3.3 0-1.1-0.4-2.2 0.2-2.6 1.3-0.2 0.6-0.1 1.4 0.3 1.9 1.6 2.2 1.2 5.3-1 6.9-0.9 0.7-2 1-3.1 1-1.1 0-2 0.9-2 2.1 0 0.6 0.3 1.3 0.8 1.6 2.2 1.6 2.8 4.6 1.2 6.9-0.6 0.9-1.5 1.6-2.6 1.9-1.1 0.3-1.7 1.5-1.3 2.5 0.2 0.6 0.7 1.1 1.3 1.3 2.6 0.8 4.1 3.6 3.3 6.2-0.3 1-1 2-1.9 2.6-0.9 0.7-1.1 1.9-0.4 2.9 0.4 0.5 1 0.8 1.6 0.8 2.7-0.1 5 2.1 5 4.8 0 1.1-0.3 2.2-1 3.1-0.7 0.9-0.5 2.2 0.4 2.8 0.5 0.4 1.3 0.5 1.9 0.3 2.6-0.9 5.4 0.4 6.3 3 0.4 1.1 0.4 2.2 0 3.3-0.4 1.1 0.2 2.2 1.3 2.6 0.6 0.2 1.4 0.1 1.9-0.3 2.2-1.6 5.3-1.2 6.9 1 0.7 0.9 1 2 1 3.1 0 1.1 0.9 2 2 2.1 0.7 0 1.3-0.3 1.7-0.9 1-1.3 2.5-2.1 4.1-2.1z" fill="#fbb04b" fill-rule="nonzero" stroke="none" stroke-width="1" stroke-linecap="butt" stroke-linejoin="miter" stroke-miterlimit="10" stroke-dasharray="" stroke-dashoffset="0" font-family="none" font-weight="none" font-size="none" text-anchor="none" style="mix-blend-mode: normal" data-fill-palette-color="tertiary"></path></g><g transform="matrix(1,0,0,1,56,132.5971027840699)"><svg viewBox="0 0 208 94.8057944318602" height="94.8057944318602" width="208"><g><svg viewBox="0 0 421.2521436429323 192.00550064515522" height="94.8057944318602" width="208"><g transform="matrix(1,0,0,1,213.25214364293228,73.50295894418987)"><svg viewBox="0 0 208 44.99958275677549" height="44.99958275677549" width="208"><g id="textblocktransform"><svg viewBox="0 0 208 44.99958275677549" height="44.99958275677549" width="208" id="textblock"><g><svg viewBox="0 0 208 44.99958275677549" height="44.99958275677549" width="208"><g transform="matrix(1,0,0,1,0,0)"><svg width="208" viewBox="0.44166666667 -35.35 165.68833333333 35.85" height="44.99958275677549" data-palette-color="#fbb04b"><path d="M13.65 0L7.6 0Q7.4 0 7.35-0.25L7.35-0.25 0.45-34.6Q0.4-34.8 0.65-34.8L0.65-34.8 6.3-34.8Q6.5-34.8 6.55-34.6L6.55-34.6 10.65-11.7 14.65-34.6Q14.7-34.8 14.9-34.8L14.9-34.8 20.5-34.8Q20.75-34.8 20.7-34.6L20.7-34.6 13.9-0.25Q13.85 0 13.65 0L13.65 0ZM31.9 0.5L31.9 0.5Q29.2 0.5 26.97-0.88 24.75-2.25 23.4-4.53 22.05-6.8 22.05-9.55L22.05-9.55 22.1-25.4Q22.1-28.15 23.42-30.4 24.75-32.65 27-34 29.25-35.35 31.9-35.35L31.9-35.35Q34.6-35.35 36.8-34 39-32.65 40.32-30.4 41.65-28.15 41.65-25.4L41.65-25.4 41.7-9.55Q41.7-6.8 40.37-4.53 39.05-2.25 36.82-0.88 34.6 0.5 31.9 0.5ZM31.9-5.55L31.9-5.55Q33.4-5.55 34.52-6.78 35.65-8 35.65-9.55L35.65-9.55 35.6-25.4Q35.6-27.05 34.55-28.2 33.5-29.35 31.9-29.35L31.9-29.35Q30.35-29.35 29.25-28.23 28.15-27.1 28.15-25.4L28.15-25.4 28.15-9.55Q28.15-7.9 29.25-6.73 30.35-5.55 31.9-5.55ZM55.5 0L49.85 0Q49.65 0 49.65-0.25L49.65-0.25 49.65-28.75 43.15-28.75Q42.9-28.75 42.9-29L42.9-29 42.95-34.6Q42.95-34.8 43.15-34.8L43.15-34.8 62.15-34.8Q62.4-34.8 62.4-34.6L62.4-34.6 62.4-29Q62.4-28.75 62.2-28.75L62.2-28.75 55.65-28.75 55.7-0.25Q55.7 0 55.5 0L55.5 0ZM81.19 0L65.04 0Q64.84 0 64.84-0.25L64.84-0.25 64.89-34.6Q64.89-34.8 65.09-34.8L65.09-34.8 81.14-34.8Q81.34-34.8 81.34-34.55L81.34-34.55 81.34-28.95Q81.34-28.75 81.14-28.75L81.14-28.75 70.89-28.75 70.89-20.95 81.14-20.95Q81.34-20.95 81.34-20.75L81.34-20.75 81.39-15.1Q81.39-14.9 81.19-14.9L81.19-14.9 70.89-14.9 70.89-6.15 81.19-6.15Q81.39-6.15 81.39-5.9L81.39-5.9 81.39-0.2Q81.39 0 81.19 0L81.19 0ZM96.49 0L90.44 0Q90.24 0 90.19-0.25L90.19-0.25 84.29-34.6Q84.24-34.8 84.44-34.8L84.44-34.8 90.04-34.8Q90.24-34.8 90.29-34.6L90.29-34.6 93.49-12 96.79-34.6Q96.84-34.8 97.09-34.8L97.09-34.8 101.59-34.8Q101.79-34.8 101.84-34.6L101.84-34.6 105.09-12 108.34-34.6Q108.39-34.8 108.59-34.8L108.59-34.8 114.14-34.8Q114.39-34.8 114.34-34.6L114.34-34.6 108.39-0.25Q108.34-0.15 108.24-0.08 108.14 0 108.14 0L108.14 0 102.09 0Q101.94 0 101.84-0.25L101.84-0.25 99.29-18.2 96.74-0.25Q96.69 0 96.49 0L96.49 0ZM123.19 0L117.54 0Q117.29 0 117.29-0.25L117.29-0.25 117.34-34.6Q117.34-34.8 117.54-34.8L117.54-34.8 123.14-34.8Q123.34-34.8 123.34-34.6L123.34-34.6 123.39-0.25Q123.39 0 123.19 0L123.19 0ZM136.29 0.5L136.29 0.5Q133.59 0.5 131.36-0.88 129.14-2.25 127.81-4.53 126.49-6.8 126.49-9.55L126.49-9.55 126.49-11.85Q126.49-12.1 126.74-12.1L126.74-12.1 132.34-12.1Q132.54-12.1 132.54-11.85L132.54-11.85 132.54-9.55Q132.54-7.9 133.64-6.73 134.74-5.55 136.29-5.55L136.29-5.55Q137.84-5.55 138.94-6.75 140.04-7.95 140.04-9.55L140.04-9.55Q140.04-11.4 137.64-12.75L137.64-12.75Q136.84-13.2 135.14-14.15 133.44-15.1 131.94-15.95L131.94-15.95Q129.19-17.55 127.86-19.98 126.54-22.4 126.54-25.45L126.54-25.45Q126.54-28.25 127.89-30.48 129.24-32.7 131.46-34 133.69-35.3 136.29-35.3L136.29-35.3Q138.94-35.3 141.16-33.98 143.39-32.65 144.71-30.43 146.04-28.2 146.04-25.45L146.04-25.45 146.04-21.35Q146.04-21.15 145.84-21.15L145.84-21.15 140.24-21.15Q140.04-21.15 140.04-21.35L140.04-21.35 139.99-25.45Q139.99-27.2 138.89-28.3 137.79-29.4 136.29-29.4L136.29-29.4Q134.74-29.4 133.64-28.23 132.54-27.05 132.54-25.45L132.54-25.45Q132.54-23.8 133.24-22.7 133.94-21.6 135.79-20.6L135.79-20.6Q136.04-20.45 136.76-20.08 137.49-19.7 138.34-19.23 139.19-18.75 139.86-18.4 140.54-18.05 140.69-17.95L140.69-17.95Q143.19-16.55 144.64-14.53 146.09-12.5 146.09-9.55L146.09-9.55Q146.09-6.7 144.76-4.42 143.44-2.15 141.21-0.83 138.99 0.5 136.29 0.5ZM165.93 0L149.78 0Q149.58 0 149.58-0.25L149.58-0.25 149.63-34.6Q149.63-34.8 149.83-34.8L149.83-34.8 165.88-34.8Q166.08-34.8 166.08-34.55L166.08-34.55 166.08-28.95Q166.08-28.75 165.88-28.75L165.88-28.75 155.63-28.75 155.63-20.95 165.88-20.95Q166.08-20.95 166.08-20.75L166.08-20.75 166.13-15.1Q166.13-14.9 165.93-14.9L165.93-14.9 155.63-14.9 155.63-6.15 165.93-6.15Q166.13-6.15 166.13-5.9L166.13-5.9 166.13-0.2Q166.13 0 165.93 0L165.93 0Z" opacity="1" transform="matrix(1,0,0,1,0,0)" fill="#fbb04b" class="wordmark-text-0" data-fill-palette-color="primary" id="text-0"></path></svg></g></svg></g></svg></g></svg></g><g><svg viewBox="0 0 192.00550064515522 192.00550064515522" height="192.00550064515522" width="192.00550064515522"><g><svg></svg></g><g id="icon-0"><svg viewBox="0 0 192.00550064515522 192.00550064515522" height="192.00550064515522" width="192.00550064515522"><g><path d="M0 96.003c0-53.021 42.982-96.003 96.003-96.003 53.021 0 96.003 42.982 96.003 96.003 0 53.021-42.982 96.003-96.003 96.003-53.021 0-96.003-42.982-96.003-96.003zM96.003 187.947c50.78 0 91.945-41.165 91.944-91.944 0-50.78-41.165-91.945-91.944-91.945-50.78 0-91.945 41.165-91.945 91.945 0 50.78 41.165 91.945 91.945 91.944z" data-fill-palette-color="accent" fill="#000000" stroke="transparent"></path></g><g transform="matrix(1,0,0,1,38.193821619853956,48.40114766482222)"><svg viewBox="0 0 115.61785740544731 95.20320531551079" height="95.20320531551079" width="115.61785740544731"><g><svg xmlns="http://www.w3.org/2000/svg" xmlns:xlink="http://www.w3.org/1999/xlink" version="1.1" x="0" y="0" viewBox="0.869 9.82 98.165 80.832" enable-background="new 0 0 100 100" xml:space="preserve" height="95.20320531551079" width="115.61785740544731" class="icon-cg-0" data-fill-palette-color="accent" id="cg-0"><path d="M0.869 90.652h91.345V86.75H67.801l8.339-8.582L55.299 58.041 99.034 9.82H70.907l-14.875 9.467H34.065c-1.464-0.022-2.651 0.677-3.416 1.793L20.424 34.489c-0.477 0.631-1.286 2.427-0.656 4.101 0 0 0.281 1.031 0.714 2.627l8.713-10.596c0.467-0.572 1.31-0.654 1.882-0.183 0.325 0.265 0.491 0.647 0.491 1.033 0 0.301-0.101 0.603-0.308 0.851l-9.904 12.047c1.699 6.141 4.297 15.357 5.378 18.344L15.383 74.396 28.176 86.75H0.869V90.652zM33.318 40.063c2.224-1.842 5.13-2.657 8.184-2.301 4.474 0.527 8.104 4.042 8.823 8.54 0.342 2.165 0.03 3.808-1.127 5.849l-6.296-6.081-3.925 4.04-6.068-9.637C33.053 40.339 33.167 40.186 33.318 40.063zM34.233 54.512c0.061 0.097 0.128 0.189 0.199 0.277l-1.788 1.84c-1.21-3.512-2.28-7.002-2.652-8.853L34.233 54.512zM20.676 74.312l22.31-22.964 4.076 3.936c-0.806 1.058-1.758 2.243-2.892 3.637l-0.575 0.707c-1.324 1.636-1.073 4.031 0.555 5.354 1.633 1.324 4.03 1.079 5.358-0.555l3.278-3.614 18.061 17.44L62.59 86.75H33.556L20.676 74.312z" fill="#000000" data-fill-palette-color="accent"></path></svg></g></svg></g></svg></g></svg></g></svg></g></svg></g></svg></g><defs></defs></svg><rect width="320" height="360" fill="none" stroke="none" visibility="hidden"></rect></g></svg></g></svg>